<svg width="40" height="40" viewBox="0 0 40 40" fill="none" xmlns="http://www.w3.org/2000/svg">
<circle cx="20" cy="20" r="20" fill="#E2E2E2"/>
<path d="M20.2539 8.66699C16.8615 8.66699 14.1016 11.4269 14.1016 14.8193C14.1016 18.2117 16.8615 20.9717 20.2539 20.9717C23.6463 20.9717 26.4062 18.2117 26.4062 14.8193C26.4062 11.4269 23.6463 8.66699 20.2539 8.66699Z" fill="#828282"/>
<path d="M27.9086 24.991C26.2242 23.2807 23.9913 22.3389 21.6211 22.3389H18.8867C16.5166 22.3389 14.2836 23.2807 12.5992 24.991C10.9231 26.6929 10 28.9393 10 31.3167C10 31.6943 10.3061 32.0003 10.6836 32.0003H29.8242C30.2017 32.0003 30.5078 31.6943 30.5078 31.3167C30.5078 28.9393 29.5847 26.6929 27.9086 24.991Z" fill="#828282"/>
</svg>
