<svg width="221" height="83" viewBox="0 0 221 83" fill="none" xmlns="http://www.w3.org/2000/svg">
<g clip-path="url(#clip0_602_1573)">
<path d="M0 24.9001L1.84167 20.7501C3.68333 16.6001 7.36667 8.30006 11.05 16.6001C14.7333 24.9001 18.4167 49.8001 22.1 59.4766C25.7833 69.2342 29.4667 63.5659 33.15 51.1766C36.8333 38.6659 40.5167 19.4342 44.2 17.9766C47.8833 16.6001 51.5667 33.2001 55.25 35.9735C58.9333 38.6659 62.6167 27.7342 66.3 29.0501C69.9833 30.3659 73.6667 44.3342 77.35 51.1766C81.0333 58.1001 84.7167 58.1001 88.4 58.1001C92.0833 58.1001 95.7667 58.1001 99.45 59.4766C103.133 60.9342 106.817 63.5659 110.5 66.4001C114.183 69.2342 117.867 71.8659 121.55 73.3235C125.233 74.7001 128.917 74.7001 132.6 62.2501C136.283 49.8001 139.967 24.9001 143.65 12.4501C147.333 5.85445e-05 151.017 5.85445e-05 154.7 5.52664C158.383 11.1342 162.067 22.0659 165.75 31.8235C169.433 41.5001 173.117 49.8001 176.8 56.7235C180.483 63.5659 184.167 69.2342 187.85 62.2501C191.533 55.2659 195.217 36.0342 198.9 34.5766C202.583 33.2001 206.267 49.8001 209.95 56.7235C213.633 63.5659 217.317 60.9342 221 49.8001C224.683 38.6659 228.367 19.4342 232.05 15.2235C235.733 11.1342 239.417 22.0659 243.1 34.5766C246.783 46.9659 250.467 60.9342 254.15 58.1001C257.833 55.2659 261.517 36.0342 263.358 26.2766L265.2 16.6001V83.0001H263.358C261.517 83.0001 257.833 83.0001 254.15 83.0001C250.467 83.0001 246.783 83.0001 243.1 83.0001C239.417 83.0001 235.733 83.0001 232.05 83.0001C228.367 83.0001 224.683 83.0001 221 83.0001C217.317 83.0001 213.633 83.0001 209.95 83.0001C206.267 83.0001 202.583 83.0001 198.9 83.0001C195.217 83.0001 191.533 83.0001 187.85 83.0001C184.167 83.0001 180.483 83.0001 176.8 83.0001C173.117 83.0001 169.433 83.0001 165.75 83.0001C162.067 83.0001 158.383 83.0001 154.7 83.0001C151.017 83.0001 147.333 83.0001 143.65 83.0001C139.967 83.0001 136.283 83.0001 132.6 83.0001C128.917 83.0001 125.233 83.0001 121.55 83.0001C117.867 83.0001 114.183 83.0001 110.5 83.0001C106.817 83.0001 103.133 83.0001 99.45 83.0001C95.7667 83.0001 92.0833 83.0001 88.4 83.0001C84.7167 83.0001 81.0333 83.0001 77.35 83.0001C73.6667 83.0001 69.9833 83.0001 66.3 83.0001C62.6167 83.0001 58.9333 83.0001 55.25 83.0001C51.5667 83.0001 47.8833 83.0001 44.2 83.0001C40.5167 83.0001 36.8333 83.0001 33.15 83.0001C29.4667 83.0001 25.7833 83.0001 22.1 83.0001C18.4167 83.0001 14.7333 83.0001 11.05 83.0001C7.36667 83.0001 3.68333 83.0001 1.84167 83.0001H0V24.9001Z" fill="url(#paint0_linear_602_1573)"/>
</g>
<g clip-path="url(#clip1_602_1573)">
<path d="M0 57.8H1.84167C3.68333 57.8 7.36667 57.8 11.05 51.5C14.7333 45.2 18.4167 32.6 22.1 29.45C25.7833 26.3 29.4667 32.6 33.15 33.6449C36.8333 34.7512 40.5167 30.4488 44.2 33.6449C47.8833 36.7488 51.5667 47.3512 55.25 48.35C58.9333 49.3488 62.6167 41.0512 66.3 44.1551C69.9833 47.3512 73.6667 61.9488 77.35 68.2949C81.0333 74.5488 84.7167 72.5512 88.4 72.5051C92.0833 72.5512 95.7667 74.5488 99.45 73.55C103.133 72.5512 106.817 68.2488 110.5 63.0551C114.183 57.8 117.867 51.5 121.55 49.3949C125.233 47.3512 128.917 49.3488 132.6 48.35C136.283 47.3512 139.967 43.0488 143.65 44.1551C147.333 45.2 151.017 51.5 154.7 50.4551C158.383 49.3488 162.067 41.0512 165.75 37.8551C169.433 34.7512 173.117 36.7488 176.8 39.9449C180.483 43.0488 184.167 47.3512 187.85 48.35C191.533 49.3488 195.217 47.3512 198.9 48.35C202.583 49.3488 206.267 53.6512 209.95 50.4551C213.633 47.3512 217.317 36.7488 221 32.6C224.683 28.4512 228.367 30.4488 232.05 32.6C235.733 34.7512 239.417 36.7488 243.1 39.9449C246.783 43.0488 250.467 47.3512 254.15 44.1551C257.833 41.0512 261.517 30.4488 263.358 25.2551L265.2 20V83H263.358C261.517 83 257.833 83 254.15 83C250.467 83 246.783 83 243.1 83C239.417 83 235.733 83 232.05 83C228.367 83 224.683 83 221 83C217.317 83 213.633 83 209.95 83C206.267 83 202.583 83 198.9 83C195.217 83 191.533 83 187.85 83C184.167 83 180.483 83 176.8 83C173.117 83 169.433 83 165.75 83C162.067 83 158.383 83 154.7 83C151.017 83 147.333 83 143.65 83C139.967 83 136.283 83 132.6 83C128.917 83 125.233 83 121.55 83C117.867 83 114.183 83 110.5 83C106.817 83 103.133 83 99.45 83C95.7667 83 92.0833 83 88.4 83C84.7167 83 81.0333 83 77.35 83C73.6667 83 69.9833 83 66.3 83C62.6167 83 58.9333 83 55.25 83C51.5667 83 47.8833 83 44.2 83C40.5167 83 36.8333 83 33.15 83C29.4667 83 25.7833 83 22.1 83C18.4167 83 14.7333 83 11.05 83C7.36667 83 3.68333 83 1.84167 83H0V57.8Z" fill="url(#paint1_linear_602_1573)"/>
</g>
<g clip-path="url(#clip2_602_1573)">
<g clip-path="url(#clip3_602_1573)">
<path d="M0 27L1.84167 29.8C3.68333 32.6 7.36667 38.2 11.05 46.6C14.7333 55 18.4167 66.2 22.1 71.8C25.7833 77.4 29.4667 77.4 33.15 72.7288C36.8333 68.1122 40.5167 58.6878 44.2 52.2C47.8833 45.7122 51.5667 41.8878 55.25 39.1288C58.9333 36.2878 62.6167 34.5122 66.3 39.1288C69.9833 43.8 73.6667 55 77.35 55.9288C81.0333 56.9122 84.7167 47.4878 88.4 45.6712C92.0833 43.8 95.7667 49.4 99.45 55.9288C103.133 62.5122 106.817 69.8878 110.5 67.1288C114.183 64.2878 117.867 51.3122 121.55 43.8C125.233 36.2878 128.917 34.5122 132.6 36.3288C136.283 38.2 139.967 43.8 143.65 44.7288C147.333 45.7122 151.017 41.8878 154.7 38.2C158.383 34.5122 162.067 30.6878 165.75 35.4C169.433 40.1122 173.117 53.0878 176.8 61.5288C180.483 69.8878 184.167 73.7122 187.85 68.0712C191.533 62.5122 195.217 47.4878 198.9 42.8712C202.583 38.2 206.267 43.8 209.95 46.6C213.633 49.4 217.317 49.4 221 50.3288C224.683 51.3122 228.367 53.0878 232.05 56.8712C235.733 60.6 239.417 66.2 243.1 64.3288C246.783 62.5122 250.467 53.0878 254.15 45.6712C257.833 38.2 261.517 32.6 263.358 29.8L265.2 27V83H263.358C261.517 83 257.833 83 254.15 83C250.467 83 246.783 83 243.1 83C239.417 83 235.733 83 232.05 83C228.367 83 224.683 83 221 83C217.317 83 213.633 83 209.95 83C206.267 83 202.583 83 198.9 83C195.217 83 191.533 83 187.85 83C184.167 83 180.483 83 176.8 83C173.117 83 169.433 83 165.75 83C162.067 83 158.383 83 154.7 83C151.017 83 147.333 83 143.65 83C139.967 83 136.283 83 132.6 83C128.917 83 125.233 83 121.55 83C117.867 83 114.183 83 110.5 83C106.817 83 103.133 83 99.45 83C95.7667 83 92.0833 83 88.4 83C84.7167 83 81.0333 83 77.35 83C73.6667 83 69.9833 83 66.3 83C62.6167 83 58.9333 83 55.25 83C51.5667 83 47.8833 83 44.2 83C40.5167 83 36.8333 83 33.15 83C29.4667 83 25.7833 83 22.1 83C18.4167 83 14.7333 83 11.05 83C7.36667 83 3.68333 83 1.84167 83H0V27Z" fill="url(#paint2_linear_602_1573)"/>
</g>
</g>
<defs>
<linearGradient id="paint0_linear_602_1573" x1="0" y1="83.0001" x2="0" y2="1.9906" gradientUnits="userSpaceOnUse">
<stop stop-color="#0C6496"/>
<stop offset="1" stop-color="#193E5C"/>
</linearGradient>
<linearGradient id="paint1_linear_602_1573" x1="0" y1="83" x2="0" y2="20" gradientUnits="userSpaceOnUse">
<stop stop-color="#237BF6"/>
<stop offset="1" stop-color="#035A6B"/>
</linearGradient>
<linearGradient id="paint2_linear_602_1573" x1="0" y1="83" x2="0" y2="27" gradientUnits="userSpaceOnUse">
<stop stop-color="#2CDDF5"/>
<stop offset="1" stop-color="#226AF7"/>
</linearGradient>
<clipPath id="clip0_602_1573">
<rect width="221" height="83" fill="white"/>
</clipPath>
<clipPath id="clip1_602_1573">
<rect width="221" height="63" fill="white" transform="translate(0 20)"/>
</clipPath>
<clipPath id="clip2_602_1573">
<rect width="221" height="56" fill="white" transform="translate(0 27)"/>
</clipPath>
<clipPath id="clip3_602_1573">
<rect width="221" height="56" fill="white" transform="translate(0 27)"/>
</clipPath>
</defs>
</svg>
