<svg width="25" height="24" viewBox="0 0 25 24" fill="none" xmlns="http://www.w3.org/2000/svg">
<path d="M9.5 22H15.5C20.5 22 22.5 20 22.5 15V9C22.5 4 20.5 2 15.5 2H9.5C4.5 2 2.5 4 2.5 9V15C2.5 20 4.5 22 9.5 22Z" stroke="white" stroke-width="1.5" stroke-linecap="round" stroke-linejoin="round"/>
<path d="M7.5 8.75C8.5 7.75 10.13 7.75 11.14 8.75M13.86 8.75C14.86 7.75 16.49 7.75 17.5 8.75M8.9 17.7H16.1C16.6 17.7 17 17.3 17 16.8C17 14.31 14.99 12.3 12.5 12.3C10.01 12.3 8 14.31 8 16.8C8 17.3 8.4 17.7 8.9 17.7Z" stroke="white" stroke-width="1.5" stroke-miterlimit="10" stroke-linecap="round" stroke-linejoin="round"/>
</svg>
