<svg width="16" height="22" viewBox="0 0 16 22" fill="none" xmlns="http://www.w3.org/2000/svg">
<path d="M1.1499 1V21V1ZM1.1499 3H12.3499C15.0499 3 15.6499 4.5 13.7499 6.4L12.5499 7.6C11.7499 8.4 11.7499 9.7 12.5499 10.4L13.7499 11.6C15.6499 13.5 14.9499 15 12.3499 15H1.1499" fill="#E31A1A"/>
<path d="M1.1499 1V21M1.1499 3H12.3499C15.0499 3 15.6499 4.5 13.7499 6.4L12.5499 7.6C11.7499 8.4 11.7499 9.7 12.5499 10.4L13.7499 11.6C15.6499 13.5 14.9499 15 12.3499 15H1.1499" stroke="#E31A1A" stroke-width="1.5" stroke-miterlimit="10" stroke-linecap="round" stroke-linejoin="round"/>
</svg>
