<svg width="30" height="30" viewBox="0 0 30 30" fill="none" xmlns="http://www.w3.org/2000/svg">
<path fill-rule="evenodd" clip-rule="evenodd" d="M4.52002 9.91292C4.52002 8.84445 5.38559 7.97888 6.45406 7.97888C7.52253 7.97888 8.3881 8.84445 8.3881 9.91292V26.4757C8.3881 27.5441 7.52253 28.4097 6.45406 28.4097C5.38559 28.4097 4.52002 27.5441 4.52002 26.4757V9.91292Z" fill="#C53300"/>
<path fill-rule="evenodd" clip-rule="evenodd" d="M24.4122 11.2893C24.4662 10.2249 25.3727 9.40626 26.4372 9.46123C27.5017 9.51521 28.3203 10.4218 28.2653 11.4862C28.1114 14.4428 26.869 17.2204 24.9399 19.2374C23.0269 21.2384 20.4362 22.5097 17.5416 22.5137L6.45414 22.5287C5.38967 22.5287 4.5271 21.6662 4.5271 20.6017C4.5271 19.5372 5.38967 18.6746 6.45414 18.6746L17.5416 18.6597C19.3137 18.6577 20.9279 17.8491 22.1443 16.5767C23.4587 15.2014 24.3063 13.3063 24.4112 11.2893H24.4122Z" fill="#C53300"/>
<path fill-rule="evenodd" clip-rule="evenodd" d="M8.38112 10.0579C8.43509 11.1223 7.6165 12.0289 6.55303 12.0829C5.48856 12.1368 4.58201 11.3182 4.52804 10.2548C4.47406 9.21329 4.22119 8.23478 3.80939 7.35422C3.38161 6.43867 2.77691 5.61808 2.03927 4.93342C1.25866 4.20778 1.21469 2.98639 1.94132 2.20578C2.66696 1.42517 3.88835 1.38119 4.66897 2.10783C5.75742 3.11833 6.65598 4.34271 7.30065 5.72303C7.92135 7.05137 8.30116 8.51464 8.38112 10.0599V10.0579Z" fill="#C53300"/>
<path fill-rule="evenodd" clip-rule="evenodd" d="M26.5721 4.64465C27.6786 4.64465 28.5761 5.54221 28.5761 6.64866C28.5761 7.75511 27.6786 8.65266 26.5721 8.65266C25.4657 8.65266 24.5681 7.75511 24.5681 6.64866C24.5681 5.54221 25.4657 4.64465 26.5721 4.64465Z" fill="#C53300"/>
<path fill-rule="evenodd" clip-rule="evenodd" d="M13.2416 3.76099C14.348 3.76099 15.2456 4.65854 15.2456 5.76499C15.2456 6.87144 14.348 7.76899 13.2416 7.76899C12.1351 7.76899 11.2375 6.87144 11.2375 5.76499C11.2375 4.65854 12.1351 3.76099 13.2416 3.76099Z" fill="#C53300"/>
<path fill-rule="evenodd" clip-rule="evenodd" d="M12.8068 13.3212C11.7384 13.3212 10.8728 12.4556 10.8728 11.3872C10.8728 10.3187 11.7384 9.45312 12.8068 9.45312H26.3381C27.4066 9.45312 28.2721 10.3187 28.2721 11.3872C28.2721 12.4556 27.4066 13.3212 26.3381 13.3212H12.8068Z" fill="#C53300"/>
<path fill-rule="evenodd" clip-rule="evenodd" d="M26.6031 25.704C27.0289 26.6805 26.5822 27.817 25.6056 28.2428C24.6291 28.6686 23.4927 28.2218 23.0669 27.2453C22.4532 25.836 21.4337 24.6396 20.1554 23.801C18.922 22.9924 17.4437 22.5226 15.8525 22.5226C14.784 22.5226 13.9185 21.657 13.9185 20.5886C13.9185 19.5201 14.784 18.6545 15.8525 18.6545C18.2193 18.6545 20.4242 19.3582 22.2703 20.5676C24.1684 21.811 25.6846 23.5961 26.6021 25.704H26.6031Z" fill="#C53300"/>
</svg>
