<svg width="409" height="337" viewBox="0 0 409 337" fill="none" xmlns="http://www.w3.org/2000/svg">
<g filter="url(#filter0_d_218_1303)">
<g clip-path="url(#clip0_218_1303)">
<rect x="14" y="14" width="373" height="301" rx="12" fill="white"/>
<path d="M386 338H13V-35H386V338Z" fill="white"/>
<path d="M339 44H318V68H339V44Z" fill="#08A0F7"/>
<path d="M57 48L40 77H74L57 48Z" fill="#08A0F7"/>
<path d="M355 302.999C355 296.373 360.149 291 366.501 291C372.851 291 378 296.373 378 302.999C378 309.627 372.851 315 366.501 315C360.149 315 355 309.627 355 302.999Z" fill="#08A0F7"/>
<path d="M121 318H117V293H121V318Z" fill="#2E2D2D"/>
<path d="M61 198H57V173H61V198Z" fill="#2E2D2D"/>
<path d="M331 148H327V123H331V148Z" fill="#2E2D2D"/>
<path d="M181 38H177V13H181V38Z" fill="#2E2D2D"/>
<path d="M131 309H106V304H131V309Z" fill="#2E2D2D"/>
<path d="M71 189H46V184H71V189Z" fill="#2E2D2D"/>
<path d="M341 139H316V134H341V139Z" fill="#2E2D2D"/>
<path d="M191 29H166V24H191V29Z" fill="#2E2D2D"/>
<path d="M326.81 57.1896H344.19V39.8104H326.81V57.1896ZM346.095 61H324.905C323.853 61 323 60.147 323 59.0948V37.9052C323 36.853 323.853 36 324.905 36H346.095C347.147 36 348 36.853 348 37.9052V59.0948C348 60.147 347.147 61 346.095 61Z" fill="#2E2D2D"/>
<path d="M51.3208 68.2717H78.6792L65 45.5925L51.3208 68.2717ZM82.0525 72H47.9475C47.2517 72 46.6087 71.6452 46.2609 71.0679C45.913 70.4906 45.913 69.781 46.2609 69.2037L63.3133 40.9321C63.6612 40.356 64.3042 40 65 40C65.6957 40 66.3388 40.356 66.6866 40.9321L83.7391 69.2037C84.087 69.781 84.087 70.4906 83.7391 71.0679C83.3911 71.6452 82.7482 72 82.0525 72Z" fill="#2E2D2D"/>
<path d="M374.501 285.786C368.747 285.786 364.067 290.144 364.067 295.499C364.067 300.856 368.747 305.214 374.501 305.214C380.253 305.214 384.933 300.856 384.933 295.499C384.933 290.144 380.253 285.786 374.501 285.786ZM374.501 309C366.505 309 360 302.943 360 295.499C360 288.055 366.505 282 374.501 282C382.496 282 389 288.055 389 295.499C389 302.943 382.496 309 374.501 309Z" fill="#2E2D2D"/>
<path d="M165.882 212.751C164.366 212.751 162.892 213.171 161.621 213.966L159.579 215.242L157.876 213.539L154.039 209.703L152.337 208.001L153.612 205.96C155.576 202.818 155.099 198.635 152.478 196.015C150.962 194.499 148.942 193.665 146.791 193.665C145.276 193.665 143.803 194.085 142.531 194.88L140.489 196.155L138.786 194.453L134.95 190.618L133.248 188.916L134.524 186.874C136.487 183.732 136.009 179.55 133.388 176.929C131.873 175.414 129.854 174.58 127.703 174.58C126.187 174.58 124.714 175 123.442 175.794L121.4 177.071L119.697 175.368L116.345 172.016L114.204 169.876L116.345 167.736L197.146 86.9523L199.286 84.8121L200.669 83.4296L208 76.0993L197.899 66L94 169.876L97.3521 173.228C99.1394 172.112 101.178 171.553 103.217 171.553C106.051 171.553 108.886 172.632 111.043 174.789C114.753 178.498 115.274 184.208 112.605 188.478L116.441 192.313C118.228 191.196 120.267 190.639 122.306 190.639C125.14 190.639 127.975 191.718 130.133 193.874C133.843 197.584 134.363 203.293 131.694 207.563L135.531 211.399C137.318 210.283 139.357 209.724 141.396 209.724C144.231 209.724 147.065 210.803 149.223 212.961C152.933 216.67 153.453 222.379 150.784 226.649L154.137 230L170.105 213.944C168.849 213.168 167.398 212.751 165.882 212.751Z" fill="#08A0F7"/>
<path d="M242.222 132.771L232.254 122.864L235.798 119.342L245.765 129.249L242.222 132.771ZM226.202 164.257C226.017 165.415 225.479 166.467 224.644 167.295C224.01 167.925 223.223 168.398 222.367 168.662L206.957 173.424L202.166 188.742C201.859 189.725 201.281 190.602 200.497 191.275C199.713 191.95 198.758 192.391 197.734 192.552C197.447 192.598 197.155 192.621 196.866 192.621C195.066 192.621 193.373 191.749 192.333 190.289L183.015 177.193L166.878 177.398C166.856 177.398 166.831 177.399 166.808 177.399C164.709 177.399 162.815 176.244 161.862 174.386C161.391 173.468 161.189 172.44 161.277 171.413C161.365 170.387 161.739 169.407 162.36 168.581L172.011 155.726L166.828 140.536C166.495 139.56 166.444 138.514 166.68 137.51C166.916 136.507 167.427 135.591 168.16 134.862C169.208 133.821 170.602 133.246 172.085 133.246C172.692 133.246 173.293 133.345 173.867 133.538L189.151 138.69L202.085 129.097C203.037 128.39 204.216 128.002 205.405 128.002C206.276 128.002 207.147 128.21 207.924 128.603C208.848 129.071 209.62 129.783 210.155 130.666C210.691 131.548 210.967 132.558 210.955 133.589L210.748 149.628L223.925 158.889C224.771 159.485 225.432 160.301 225.834 161.25C226.237 162.2 226.364 163.24 226.202 164.257ZM218.365 102.015L228.332 111.922L224.789 115.444L214.822 105.537L218.365 102.015ZM272.729 124.447C269.878 124.447 267.027 123.368 264.856 121.211C261.124 117.502 260.601 111.792 263.285 107.522L259.426 103.687C257.628 104.803 255.577 105.361 253.526 105.361C250.676 105.361 247.825 104.282 245.654 102.126C241.922 98.4155 241.399 92.7068 244.083 88.4363L240.224 84.6012C238.427 85.7172 236.376 86.2757 234.325 86.2757C231.474 86.2757 228.623 85.1968 226.452 83.0391C222.721 79.33 222.197 73.6213 224.882 69.3508L221.509 66L201.82 85.5698L210.9 94.5951L207.357 98.1167L198.276 89.0924L117 169.876L120.372 173.228C122.169 172.112 124.22 171.553 126.271 171.553C129.122 171.553 131.973 172.631 134.143 174.789C137.875 178.498 138.399 184.208 135.715 188.478L139.573 192.313C141.371 191.196 143.422 190.639 145.472 190.639C148.324 190.639 151.175 191.717 153.345 193.874C157.077 197.584 157.601 203.293 154.916 207.563L158.775 211.399C160.573 210.283 162.624 209.724 164.675 209.724C167.526 209.724 170.377 210.803 172.548 212.961C176.28 216.67 176.803 222.379 174.119 226.649L177.49 230L258.767 149.217L249.687 140.191L253.231 136.669L262.31 145.694L282 126.123L278.628 122.772C276.83 123.888 274.779 124.447 272.729 124.447Z" fill="#08A0F7"/>
<path d="M266.275 140.698L257.298 131.702L253.794 135.213L262.772 144.209L182.414 224.727L179.081 221.387C181.736 217.131 181.218 211.441 177.528 207.744C175.382 205.593 172.563 204.518 169.744 204.518C167.717 204.518 165.689 205.075 163.912 206.187L160.096 202.363C162.75 198.108 162.232 192.417 158.543 188.72C156.398 186.57 153.578 185.495 150.759 185.495C148.732 185.495 146.704 186.051 144.927 187.164L141.112 183.342C143.766 179.085 143.248 173.394 139.558 169.697C137.412 167.547 134.594 166.472 131.775 166.472C129.747 166.472 127.72 167.029 125.942 168.141L122.609 164.801L202.966 84.2827L211.943 93.2783L215.446 89.7673L206.47 80.7717L225.936 61.2662L229.27 64.606C226.616 68.8625 227.134 74.5524 230.823 78.2493C232.969 80.3999 235.788 81.4752 238.607 81.4752C240.635 81.4752 242.663 80.9186 244.439 79.8063L248.254 83.6288C245.601 87.8852 246.118 93.5751 249.808 97.273C251.954 99.4227 254.772 100.498 257.591 100.498C259.619 100.498 261.646 99.9414 263.424 98.8291L267.239 102.652C264.585 106.908 265.103 112.599 268.792 116.296C270.939 118.445 273.757 119.521 276.576 119.521C278.603 119.521 280.631 118.964 282.408 117.852L285.742 121.192L266.275 140.698ZM158.064 224.727L154.73 221.387C157.384 217.131 156.867 211.441 153.177 207.744C151.031 205.593 148.212 204.518 145.393 204.518C143.365 204.518 141.338 205.075 139.561 206.187L135.745 202.363C138.399 198.108 137.882 192.417 134.192 188.72C132.046 186.57 129.227 185.495 126.408 185.495C124.38 185.495 122.353 186.051 120.576 187.164L116.761 183.342C119.415 179.085 118.897 173.394 115.207 169.697C113.062 167.548 110.243 166.472 107.424 166.472C105.396 166.472 103.369 167.029 101.591 168.141L98.2578 164.801L201.586 61.2662L211.632 71.3323L204.341 78.6385L202.966 80.0165L200.837 82.1496L120.48 162.667L118.351 164.801L120.48 166.934L123.814 170.274L125.507 171.972L127.538 170.7C128.803 169.908 130.268 169.489 131.775 169.489C133.914 169.489 135.922 170.32 137.429 171.83C140.036 174.442 140.511 178.611 138.559 181.743L137.29 183.778L138.983 185.475L142.798 189.297L144.491 190.993L146.522 189.722C147.787 188.93 149.253 188.512 150.759 188.512C152.898 188.512 154.907 189.343 156.414 190.853C159.021 193.465 159.496 197.634 157.543 200.766L156.274 202.8L157.967 204.497L161.783 208.32L163.476 210.017L165.507 208.745C166.772 207.953 168.237 207.535 169.744 207.535C171.253 207.535 172.696 207.95 173.945 208.724L158.064 224.727ZM287.871 119.06L284.538 115.719L282.844 114.022L280.814 115.293C279.548 116.086 278.083 116.504 276.576 116.504C274.437 116.504 272.428 115.673 270.922 114.163C268.314 111.551 267.84 107.382 269.793 104.25L271.061 102.216L269.368 100.518L265.552 96.696L263.86 94.9988L261.828 96.2707C260.564 97.0628 259.098 97.4813 257.591 97.4813C255.451 97.4813 253.444 96.6493 251.937 95.1399C249.33 92.5271 248.855 88.3591 250.807 85.2266L252.076 83.1918L250.383 81.4957L246.568 77.6732L244.875 75.9761L242.844 77.248C241.579 78.0401 240.114 78.4585 238.607 78.4585C236.468 78.4585 234.459 77.6265 232.952 76.1162C230.345 73.5043 229.87 69.3364 231.823 66.2048L233.092 64.17L231.399 62.4729L228.065 59.1331L225.936 57L223.807 59.1331L213.76 69.1992L203.714 59.1331L201.586 57L199.457 59.1331L96.1288 162.667L94 164.801L96.1288 166.935L99.4625 170.274L101.156 171.972L103.187 170.7C104.452 169.908 105.917 169.489 107.424 169.489C109.563 169.489 111.572 170.321 113.078 171.83C115.685 174.442 116.16 178.611 114.208 181.743L112.939 183.778L114.632 185.475L118.447 189.297L120.14 190.993L122.171 189.722C123.436 188.93 124.901 188.512 126.408 188.512C128.548 188.512 130.556 189.344 132.063 190.853C134.67 193.465 135.145 197.634 133.192 200.766L131.923 202.8L133.616 204.497L137.432 208.32L139.125 210.017L141.156 208.745C142.421 207.953 143.886 207.535 145.393 207.535C147.533 207.535 149.541 208.367 151.048 209.877C153.655 212.489 154.13 216.657 152.177 219.788L150.908 221.823L152.601 223.52L155.935 226.86L158.07 229L160.199 226.854L176.162 210.767C178.078 213.371 178.271 216.993 176.528 219.788L175.259 221.823L176.953 223.52L180.286 226.86L182.414 228.993L184.543 226.86L264.901 146.341L266.275 144.964L268.404 142.831L287.871 123.326L290 121.192L287.871 119.06Z" fill="#2E2D2D"/>
<path d="M237 118.885L247.329 127L251 124.115L240.672 116L237 118.885Z" fill="#2E2D2D"/>
<path d="M220 100.672L229.591 111L233 107.328L223.409 97L220 100.672Z" fill="#2E2D2D"/>
<path d="M227.972 159.547C227.888 160.088 227.641 160.575 227.279 160.948C227.002 161.234 226.658 161.453 226.268 161.578L209.592 166.923L204.409 184.12C204.13 185.044 203.367 185.726 202.439 185.877C202.311 185.899 202.181 185.909 202.054 185.909C201.261 185.909 200.506 185.514 200.039 184.834L189.957 170.13L172.496 170.36C172.485 170.36 172.475 170.361 172.464 170.361C171.538 170.361 170.688 169.825 170.267 168.972C169.841 168.11 169.926 167.071 170.488 166.296L180.932 151.863L175.323 134.809C175.022 133.891 175.251 132.878 175.915 132.193C176.385 131.709 177.016 131.448 177.66 131.448C177.925 131.448 178.192 131.492 178.452 131.583L194.989 137.367L208.984 126.596C209.418 126.262 209.937 126.091 210.46 126.091C210.842 126.091 211.225 126.182 211.579 126.369C212.416 126.807 212.938 127.699 212.925 128.667L212.702 146.674L226.96 157.071C227.727 157.631 228.119 158.59 227.972 159.547ZM228.691 154.548L215.72 145.088L215.923 128.707C215.936 127.654 215.664 126.622 215.136 125.721C214.609 124.82 213.849 124.092 212.94 123.614C212.175 123.212 211.317 123 210.46 123C209.29 123 208.129 123.397 207.191 124.119L194.459 133.916L179.414 128.655C178.848 128.458 178.257 128.357 177.66 128.357C176.199 128.357 174.827 128.943 173.796 130.007C173.074 130.751 172.57 131.687 172.338 132.712C172.106 133.737 172.157 134.805 172.484 135.802L177.586 151.317L168.086 164.447C167.474 165.29 167.106 166.291 167.02 167.339C166.933 168.388 167.132 169.438 167.595 170.375C168.533 172.273 170.399 173.453 172.464 173.453C172.487 173.453 172.511 173.452 172.534 173.452L188.419 173.242L197.592 186.619C198.615 188.109 200.282 189 202.054 189C202.339 189 202.626 188.977 202.908 188.93C203.916 188.766 204.857 188.315 205.629 187.626C206.4 186.938 206.969 186.042 207.271 185.038L211.987 169.393L227.157 164.53C228 164.259 228.775 163.777 229.399 163.134C230.221 162.287 230.751 161.213 230.933 160.03C231.092 158.991 230.967 157.929 230.571 156.959C230.174 155.99 229.524 155.156 228.691 154.548Z" fill="#2E2D2D"/>
</g>
</g>
<defs>
<filter id="filter0_d_218_1303" x="0" y="0" width="409" height="337" filterUnits="userSpaceOnUse" color-interpolation-filters="sRGB">
<feFlood flood-opacity="0" result="BackgroundImageFix"/>
<feColorMatrix in="SourceAlpha" type="matrix" values="0 0 0 0 0 0 0 0 0 0 0 0 0 0 0 0 0 0 127 0" result="hardAlpha"/>
<feOffset dx="4" dy="4"/>
<feGaussianBlur stdDeviation="9"/>
<feComposite in2="hardAlpha" operator="out"/>
<feColorMatrix type="matrix" values="0 0 0 0 0 0 0 0 0 0 0 0 0 0 0 0 0 0 0.12 0"/>
<feBlend mode="normal" in2="BackgroundImageFix" result="effect1_dropShadow_218_1303"/>
<feBlend mode="normal" in="SourceGraphic" in2="effect1_dropShadow_218_1303" result="shape"/>
</filter>
<clipPath id="clip0_218_1303">
<rect x="14" y="14" width="373" height="301" rx="12" fill="white"/>
</clipPath>
</defs>
</svg>
