<svg width="14" height="14" viewBox="0 0 14 14" fill="none" xmlns="http://www.w3.org/2000/svg">
<path d="M7.01169 11.9759C5.65253 11.9759 4.29336 11.76 3.00419 11.3284C2.51419 11.1592 2.14086 10.815 1.97753 10.3659C1.80836 9.9167 1.86669 9.42087 2.13503 8.97754L2.80586 7.86337C2.94586 7.63004 3.07419 7.16337 3.07419 6.8892V5.20337C3.07419 3.03337 4.84169 1.26587 7.01169 1.26587C9.18169 1.26587 10.9492 3.03337 10.9492 5.20337V6.8892C10.9492 7.15754 11.0775 7.63004 11.2175 7.8692L11.8825 8.97754C12.1334 9.39754 12.18 9.90504 12.0109 10.3659C11.8417 10.8267 11.4742 11.1767 11.0134 11.3284C9.73002 11.76 8.37086 11.9759 7.01169 11.9759ZM7.01169 2.14087C5.32586 2.14087 3.94919 3.5117 3.94919 5.20337V6.8892C3.94919 7.31504 3.77419 7.94504 3.55836 8.31254L2.88753 9.4267C2.75919 9.64254 2.72419 9.87004 2.80003 10.0625C2.87003 10.2609 3.04503 10.4125 3.28419 10.4942C5.72253 11.3109 8.30669 11.3109 10.745 10.4942C10.955 10.4242 11.1184 10.2667 11.1942 10.0567C11.27 9.8467 11.2525 9.6192 11.1359 9.4267L10.465 8.31254C10.2434 7.93337 10.0742 7.3092 10.0742 6.88337V5.20337C10.0742 3.5117 8.70336 2.14087 7.01169 2.14087Z" fill="#828282"/>
<path d="M8.09669 2.29835C8.05586 2.29835 8.01503 2.29252 7.97419 2.28085C7.80503 2.23419 7.64169 2.19919 7.48419 2.17585C6.98836 2.11169 6.51003 2.14669 6.06086 2.28085C5.89753 2.33335 5.72253 2.28085 5.61169 2.15835C5.50086 2.03585 5.46586 1.86085 5.53003 1.70335C5.76919 1.09085 6.35253 0.688354 7.01753 0.688354C7.68253 0.688354 8.26586 1.08502 8.50503 1.70335C8.56336 1.86085 8.53419 2.03585 8.42336 2.15835C8.33586 2.25169 8.21336 2.29835 8.09669 2.29835Z" fill="#828282"/>
<path d="M7.01166 13.3058C6.43416 13.3058 5.87416 13.0725 5.46582 12.6641C5.05749 12.2558 4.82416 11.6958 4.82416 11.1183H5.69916C5.69916 11.4625 5.83916 11.8008 6.08416 12.0458C6.32916 12.2908 6.66749 12.4308 7.01166 12.4308C7.73499 12.4308 8.32416 11.8416 8.32416 11.1183H9.19916C9.19916 12.3258 8.21916 13.3058 7.01166 13.3058Z" fill="#828282"/>
</svg>
