<svg width="14" height="14" viewBox="0 0 14 14" fill="none" xmlns="http://www.w3.org/2000/svg">
<path d="M6.70832 12.6875C3.41249 12.6875 0.729156 10.0041 0.729156 6.70829C0.729156 3.41246 3.41249 0.729126 6.70832 0.729126C10.0042 0.729126 12.6875 3.41246 12.6875 6.70829C12.6875 10.0041 10.0042 12.6875 6.70832 12.6875ZM6.70832 1.60413C3.89082 1.60413 1.60416 3.89663 1.60416 6.70829C1.60416 9.51996 3.89082 11.8125 6.70832 11.8125C9.52582 11.8125 11.8125 9.51996 11.8125 6.70829C11.8125 3.89663 9.52582 1.60413 6.70832 1.60413Z" fill="#C2C2C2"/>
<path d="M12.8333 13.2708C12.7225 13.2708 12.6117 13.23 12.5242 13.1425L11.3575 11.9758C11.1883 11.8066 11.1883 11.5266 11.3575 11.3575C11.5267 11.1883 11.8067 11.1883 11.9758 11.3575L13.1425 12.5241C13.3117 12.6933 13.3117 12.9733 13.1425 13.1425C13.055 13.23 12.9442 13.2708 12.8333 13.2708Z" fill="#C2C2C2"/>
</svg>
