<svg width="221" height="56" viewBox="0 0 221 56" fill="none" xmlns="http://www.w3.org/2000/svg">
<path d="M0 0L1.84167 2.8C3.68333 5.6 7.36667 11.2 11.05 19.6C14.7333 28 18.4167 39.2 22.1 44.8C25.7833 50.4 29.4667 50.4 33.15 45.7288C36.8333 41.1122 40.5167 31.6878 44.2 25.2C47.8833 18.7122 51.5667 14.8878 55.25 12.1288C58.9333 9.28781 62.6167 7.5122 66.3 12.1288C69.9833 16.8 73.6667 28 77.35 28.9288C81.0333 29.9122 84.7167 20.4878 88.4 18.6712C92.0833 16.8 95.7667 22.4 99.45 28.9288C103.133 35.5122 106.817 42.8878 110.5 40.1288C114.183 37.2878 117.867 24.3122 121.55 16.8C125.233 9.28781 128.917 7.5122 132.6 9.32878C136.283 11.2 139.967 16.8 143.65 17.7288C147.333 18.7122 151.017 14.8878 154.7 11.2C158.383 7.5122 162.067 3.6878 165.75 8.4C169.433 13.1122 173.117 26.0878 176.8 34.5288C180.483 42.8878 184.167 46.7122 187.85 41.0712C191.533 35.5122 195.217 20.4878 198.9 15.8712C202.583 11.2 206.267 16.8 209.95 19.6C213.633 22.4 217.317 22.4 221 23.3288C224.683 24.3122 228.367 26.0878 232.05 29.8712C235.733 33.6 239.417 39.2 243.1 37.3288C246.783 35.5122 250.467 26.0878 254.15 18.6712C257.833 11.2 261.517 5.6 263.358 2.8L265.2 0V56H263.358C261.517 56 257.833 56 254.15 56C250.467 56 246.783 56 243.1 56C239.417 56 235.733 56 232.05 56C228.367 56 224.683 56 221 56C217.317 56 213.633 56 209.95 56C206.267 56 202.583 56 198.9 56C195.217 56 191.533 56 187.85 56C184.167 56 180.483 56 176.8 56C173.117 56 169.433 56 165.75 56C162.067 56 158.383 56 154.7 56C151.017 56 147.333 56 143.65 56C139.967 56 136.283 56 132.6 56C128.917 56 125.233 56 121.55 56C117.867 56 114.183 56 110.5 56C106.817 56 103.133 56 99.45 56C95.7667 56 92.0833 56 88.4 56C84.7167 56 81.0333 56 77.35 56C73.6667 56 69.9833 56 66.3 56C62.6167 56 58.9333 56 55.25 56C51.5667 56 47.8833 56 44.2 56C40.5167 56 36.8333 56 33.15 56C29.4667 56 25.7833 56 22.1 56C18.4167 56 14.7333 56 11.05 56C7.36667 56 3.68333 56 1.84167 56H0V0Z" fill="url(#paint0_linear_264_2343)"/>
<defs>
<linearGradient id="paint0_linear_264_2343" x1="0" y1="56" x2="0" y2="0" gradientUnits="userSpaceOnUse">
<stop stop-color="#2CDDF5"/>
<stop offset="1" stop-color="#226AF7"/>
</linearGradient>
</defs>
</svg>
