<svg width="221" height="63" viewBox="0 0 221 63" fill="none" xmlns="http://www.w3.org/2000/svg">
<path d="M0 37.8H1.84167C3.68333 37.8 7.36667 37.8 11.05 31.5C14.7333 25.2 18.4167 12.6 22.1 9.45C25.7833 6.3 29.4667 12.6 33.15 13.6449C36.8333 14.7512 40.5167 10.4488 44.2 13.6449C47.8833 16.7488 51.5667 27.3512 55.25 28.35C58.9333 29.3488 62.6167 21.0512 66.3 24.1551C69.9833 27.3512 73.6667 41.9488 77.35 48.2949C81.0333 54.5488 84.7167 52.5512 88.4 52.5051C92.0833 52.5512 95.7667 54.5488 99.45 53.55C103.133 52.5512 106.817 48.2488 110.5 43.0551C114.183 37.8 117.867 31.5 121.55 29.3949C125.233 27.3512 128.917 29.3488 132.6 28.35C136.283 27.3512 139.967 23.0488 143.65 24.1551C147.333 25.2 151.017 31.5 154.7 30.4551C158.383 29.3488 162.067 21.0512 165.75 17.8551C169.433 14.7512 173.117 16.7488 176.8 19.9449C180.483 23.0488 184.167 27.3512 187.85 28.35C191.533 29.3488 195.217 27.3512 198.9 28.35C202.583 29.3488 206.267 33.6512 209.95 30.4551C213.633 27.3512 217.317 16.7488 221 12.6C224.683 8.45122 228.367 10.4488 232.05 12.6C235.733 14.7512 239.417 16.7488 243.1 19.9449C246.783 23.0488 250.467 27.3512 254.15 24.1551C257.833 21.0512 261.517 10.4488 263.358 5.25512L265.2 0V63H263.358C261.517 63 257.833 63 254.15 63C250.467 63 246.783 63 243.1 63C239.417 63 235.733 63 232.05 63C228.367 63 224.683 63 221 63C217.317 63 213.633 63 209.95 63C206.267 63 202.583 63 198.9 63C195.217 63 191.533 63 187.85 63C184.167 63 180.483 63 176.8 63C173.117 63 169.433 63 165.75 63C162.067 63 158.383 63 154.7 63C151.017 63 147.333 63 143.65 63C139.967 63 136.283 63 132.6 63C128.917 63 125.233 63 121.55 63C117.867 63 114.183 63 110.5 63C106.817 63 103.133 63 99.45 63C95.7667 63 92.0833 63 88.4 63C84.7167 63 81.0333 63 77.35 63C73.6667 63 69.9833 63 66.3 63C62.6167 63 58.9333 63 55.25 63C51.5667 63 47.8833 63 44.2 63C40.5167 63 36.8333 63 33.15 63C29.4667 63 25.7833 63 22.1 63C18.4167 63 14.7333 63 11.05 63C7.36667 63 3.68333 63 1.84167 63H0V37.8Z" fill="url(#paint0_linear_232_923)"/>
<defs>
<linearGradient id="paint0_linear_232_923" x1="0" y1="63" x2="0" y2="0" gradientUnits="userSpaceOnUse">
<stop stop-color="#237BF6"/>
<stop offset="1" stop-color="#035A6B"/>
</linearGradient>
</defs>
</svg>
