<svg width="221" height="82" viewBox="0 0 221 82" fill="none" xmlns="http://www.w3.org/2000/svg">
<path d="M0 23.9001L1.84167 19.7501C3.68333 15.6001 7.36667 7.30006 11.05 15.6001C14.7333 23.9001 18.4167 48.8001 22.1 58.4766C25.7833 68.2342 29.4667 62.5659 33.15 50.1766C36.8333 37.6659 40.5167 18.4342 44.2 16.9766C47.8833 15.6001 51.5667 32.2001 55.25 34.9735C58.9333 37.6659 62.6167 26.7342 66.3 28.0501C69.9833 29.3659 73.6667 43.3342 77.35 50.1766C81.0333 57.1001 84.7167 57.1001 88.4 57.1001C92.0833 57.1001 95.7667 57.1001 99.45 58.4766C103.133 59.9342 106.817 62.5659 110.5 65.4001C114.183 68.2342 117.867 70.8659 121.55 72.3235C125.233 73.7001 128.917 73.7001 132.6 61.2501C136.283 48.8001 139.967 23.9001 143.65 11.4501C147.333 -0.999941 151.017 -0.999941 154.7 4.52664C158.383 10.1342 162.067 21.0659 165.75 30.8235C169.433 40.5001 173.117 48.8001 176.8 55.7235C180.483 62.5659 184.167 68.2342 187.85 61.2501C191.533 54.2659 195.217 35.0342 198.9 33.5766C202.583 32.2001 206.267 48.8001 209.95 55.7235C213.633 62.5659 217.317 59.9342 221 48.8001C224.683 37.6659 228.367 18.4342 232.05 14.2235C235.733 10.1342 239.417 21.0659 243.1 33.5766C246.783 45.9659 250.467 59.9342 254.15 57.1001C257.833 54.2659 261.517 35.0342 263.358 25.2766L265.2 15.6001V82.0001H263.358C261.517 82.0001 257.833 82.0001 254.15 82.0001C250.467 82.0001 246.783 82.0001 243.1 82.0001C239.417 82.0001 235.733 82.0001 232.05 82.0001C228.367 82.0001 224.683 82.0001 221 82.0001C217.317 82.0001 213.633 82.0001 209.95 82.0001C206.267 82.0001 202.583 82.0001 198.9 82.0001C195.217 82.0001 191.533 82.0001 187.85 82.0001C184.167 82.0001 180.483 82.0001 176.8 82.0001C173.117 82.0001 169.433 82.0001 165.75 82.0001C162.067 82.0001 158.383 82.0001 154.7 82.0001C151.017 82.0001 147.333 82.0001 143.65 82.0001C139.967 82.0001 136.283 82.0001 132.6 82.0001C128.917 82.0001 125.233 82.0001 121.55 82.0001C117.867 82.0001 114.183 82.0001 110.5 82.0001C106.817 82.0001 103.133 82.0001 99.45 82.0001C95.7667 82.0001 92.0833 82.0001 88.4 82.0001C84.7167 82.0001 81.0333 82.0001 77.35 82.0001C73.6667 82.0001 69.9833 82.0001 66.3 82.0001C62.6167 82.0001 58.9333 82.0001 55.25 82.0001C51.5667 82.0001 47.8833 82.0001 44.2 82.0001C40.5167 82.0001 36.8333 82.0001 33.15 82.0001C29.4667 82.0001 25.7833 82.0001 22.1 82.0001C18.4167 82.0001 14.7333 82.0001 11.05 82.0001C7.36667 82.0001 3.68333 82.0001 1.84167 82.0001H0V23.9001Z" fill="url(#paint0_linear_232_927)"/>
<defs>
<linearGradient id="paint0_linear_232_927" x1="0" y1="82.0001" x2="0" y2="0.990601" gradientUnits="userSpaceOnUse">
<stop stop-color="#0C6496"/>
<stop offset="1" stop-color="#193E5C"/>
</linearGradient>
</defs>
</svg>
